HIERARCHY
ROOT Joint1
{
	OFFSET 0.000000 0.000000 0.000000
	CHANNELS 6 Xposition Yposition Zposition Xrotation Yrotation Zrotation
	JOINT Joint2
	{
		OFFSET -0.000000 0.000000 1.456275
		CHANNELS 6 Xposition Yposition Zposition Xrotation Yrotation Zrotation
		JOINT Joint3
		{
			OFFSET -0.000000 0.000002 1.471446
			CHANNELS 6 Xposition Yposition Zposition Xrotation Yrotation Zrotation
			JOINT Joint4
			{
				OFFSET 0.625745 0.000000 0.917755
				CHANNELS 6 Xposition Yposition Zposition Xrotation Yrotation Zrotation
				JOINT Joint5
				{
					OFFSET -0.629534 0.000001 0.940221
					CHANNELS 6 Xposition Yposition Zposition Xrotation Yrotation Zrotation
					JOINT Joint6
					{
						OFFSET -0.000001 0.113772 1.960660
						CHANNELS 6 Xposition Yposition Zposition Xrotation Yrotation Zrotation
						JOINT Joint7
						{
							OFFSET -0.669733 -0.113771 0.388340
							CHANNELS 6 Xposition Yposition Zposition Xrotation Yrotation Zrotation
							End Site
							{
								OFFSET 0.005509 0.005509 0.438980
							}
						}
					}
				}
			}
		}
	}
}
MOTION
Frames: 24
Frame Time: 0.041667
0.000000 0.000000 0.000000 -0.000000 1.019410 -120.668706 -0.000000 -0.000000 1.456275 0.000018 -79.297745 -0.000003 -0.000000 0.000002 1.471446 -0.000014 -1.133455 135.348080 0.625745 0.000000 0.917755 -0.000002 15.362045 0.000001 -0.629534 0.000001 0.940221 0.000000 1.709737 -57.713732 -0.000001 0.113772 1.960660 -88.303882 169.503684 -0.000002 -0.669733 -0.113771 0.388340 -0.298899 3.481472 111.432508 
0.000000 0.000000 0.000000 -0.000000 1.019410 -120.562674 -0.000000 0.000000 1.456275 -0.000010 -79.267596 0.000002 -0.000000 0.000002 1.471446 -0.000009 -1.133455 135.229126 0.625744 0.000000 0.917755 -0.000000 15.467179 -0.000002 -0.629534 0.000001 0.940221 -0.000003 1.709733 -57.663032 -0.000001 0.113772 1.960661 -88.303882 169.433812 -0.000000 -0.669734 -0.113771 0.388340 -0.299235 3.481619 111.453196 
0.000000 0.000000 0.000000 -0.000000 1.019410 -120.387753 -0.000000 0.000000 1.456275 -0.000006 -79.217859 0.000004 -0.000000 0.000002 1.471446 -0.000010 -1.133456 135.032881 0.625744 0.000000 0.917755 -0.000003 15.640655 -0.000002 -0.629533 0.000001 0.940221 -0.000000 1.709736 -57.579383 -0.000000 0.113772 1.960661 -88.303882 169.318518 -0.000003 -0.669733 -0.113771 0.388340 -0.299791 3.481859 111.487306 
0.000000 0.000000 0.000000 -0.000000 1.019410 -120.145350 -0.000000 0.000000 1.456275 0.000011 -79.148929 0.000021 -0.000001 0.000002 1.471446 -0.000008 -1.133457 134.760930 0.625745 0.000000 0.917755 -0.000000 15.881032 0.000001 -0.629534 0.000001 0.940221 0.000001 1.709737 -57.463474 -0.000001 0.113772 1.960660 -88.303882 169.158760 -0.000002 -0.669733 -0.113771 0.388340 -0.300561 3.482194 111.534599 
0.000000 0.000000 0.000000 -0.000000 1.019410 -119.836953 -0.000000 0.000000 1.456275 0.000002 -79.061222 0.000007 -0.000000 0.000002 1.471446 -0.000009 -1.133456 134.414913 0.625744 0.000001 0.917755 -0.000002 16.186881 -0.000001 -0.629533 0.000001 0.940220 0.000002 1.709738 -57.316004 -0.000001 0.113772 1.960661 -88.303882 168.955480 -0.000001 -0.669733 -0.113771 0.388340 -0.301542 3.482617 111.594766 
0.000000 0.000000 0.000000 -0.000000 1.019410 -119.463943 -0.000000 -0.000000 1.456275 0.000005 -78.955163 -0.000005 -0.000000 0.000002 1.471446 -0.000010 -1.133456 133.996454 0.625745 0.000000 0.917755 -0.000003 16.556771 -0.000000 -0.629534 0.000001 0.940221 0.000003 1.709737 -57.137637 -0.000000 0.113772 1.960661 -88.303882 168.709661 -0.000001 -0.669733 -0.113771 0.388340 -0.302729 3.483129 111.667528 
0.000000 0.000000 0.000000 -0.000000 1.019410 -119.027822 -0.000000 0.000000 1.456275 -0.000003 -78.831147 0.000002 -0.000001 0.000002 1.471446 -0.000010 -1.133455 133.507167 0.625745 0.000000 0.917755 -0.000001 16.989267 0.000001 -0.629534 0.000001 0.940220 -0.000001 1.709736 -56.929091 -0.000001 0.113772 1.960661 -88.303882 168.422206 -0.000000 -0.669733 -0.113771 0.388340 -0.304117 3.483726 111.752598 
0.000000 0.000000 0.000000 -0.000000 1.019410 -118.530010 -0.000000 -0.000000 1.456275 0.000006 -78.689585 -0.000003 -0.000000 0.000002 1.471445 -0.000006 -1.133456 132.948662 0.625744 0.000000 0.917755 -0.000002 17.482938 -0.000002 -0.629534 0.000001 0.940221 -0.000001 1.709734 -56.691052 -0.000001 0.113772 1.960660 -88.303882 168.094125 0.000001 -0.669733 -0.113770 0.388340 -0.305702 3.484404 111.849709 
0.000000 0.000000 0.000000 -0.000000 1.019410 -117.971956 -0.000000 -0.000000 1.456275 0.000009 -78.530899 -0.000003 -0.000001 0.000002 1.471446 -0.000011 -1.133456 132.322566 0.625744 0.000000 0.917755 -0.000002 18.036344 0.000000 -0.629534 0.000001 0.940221 0.000001 1.709736 -56.424200 -0.000001 0.113772 1.960660 -88.303882 167.726319 -0.000003 -0.669733 -0.113771 0.388341 -0.307481 3.485161 111.958569 
0.000000 0.000000 0.000000 -0.000000 1.019410 -117.355108 -0.000000 0.000000 1.456275 -0.000011 -78.355493 -0.000004 -0.000000 0.000002 1.471446 -0.000008 -1.133456 131.630518 0.625744 0.000000 0.917755 -0.000002 18.648061 0.000000 -0.629534 0.000001 0.940221 0.000003 1.709736 -56.129241 -0.000000 0.113772 1.960660 -88.303882 167.319759 0.000002 -0.669733 -0.113771 0.388340 -0.309448 3.485995 112.078896 
0.000000 0.000000 0.000000 -0.000000 1.019410 -116.680900 -0.000000 0.000000 1.456275 -0.000003 -78.163776 0.000001 -0.000000 0.000002 1.471446 -0.000010 -1.133456 130.874129 0.625745 0.000000 0.917755 0.000001 19.316656 -0.000002 -0.629534 0.000001 0.940221 0.000001 1.709736 -55.806850 -0.000001 0.113772 1.960660 -88.303882 166.875414 -0.000000 -0.669733 -0.113771 0.388340 -0.311601 3.486900 112.210412 
0.000000 0.000000 0.000000 -0.000000 1.019410 -115.952051 -0.000000 0.000000 1.456275 -0.000001 -77.956514 0.000001 -0.000000 0.000002 1.471446 -0.000011 -1.133457 130.056419 0.625744 0.000001 0.917755 -0.000002 20.039440 -0.000001 -0.629534 0.000001 0.940221 0.000001 1.709736 -55.458329 -0.000000 0.113772 1.960660 -88.303882 166.395033 -0.000005 -0.669733 -0.113770 0.388341 -0.313930 3.487873 112.352596 
0.000000 0.000000 0.000000 -0.000000 1.019410 -115.176278 -0.000000 -0.000000 1.456275 0.000002 -77.735920 -0.000001 -0.000000 0.000002 1.471446 -0.000009 -1.133455 129.186089 0.625745 0.000000 0.917755 -0.000001 20.808754 -0.000002 -0.629534 0.000001 0.940221 0.000002 1.709737 -55.087374 -0.000001 0.113772 1.960661 -88.303882 165.883766 0.000000 -0.669733 -0.113771 0.388340 -0.316412 3.488903 112.503919 
0.000000 0.000000 0.000000 -0.000000 1.019410 -114.362597 -0.000000 -0.000000 1.456275 -0.000005 -77.504547 0.000000 -0.000000 0.000002 1.471446 -0.000010 -1.133455 128.273220 0.625745 0.000000 0.917755 -0.000002 21.615665 0.000000 -0.629534 0.000001 0.940221 -0.000001 1.709738 -54.698293 -0.000001 0.113772 1.960661 -88.303882 165.347473 -0.000001 -0.669733 -0.113771 0.388340 -0.319019 3.489977 112.662645 
0.000000 0.000000 0.000000 -0.000000 1.019410 -113.519977 -0.000000 0.000000 1.456275 -0.000006 -77.264951 -0.000005 -0.000000 0.000002 1.471446 -0.000009 -1.133455 127.327867 0.625744 0.000000 0.917755 0.000000 22.451264 -0.000000 -0.629534 0.000001 0.940221 -0.000001 1.709735 -54.295370 -0.000001 0.113772 1.960661 -88.303882 164.792124 -0.000003 -0.669733 -0.113770 0.388340 -0.321721 3.491080 112.827007 
0.000000 0.000000 0.000000 -0.000000 1.019410 -112.657441 -0.000000 0.000000 1.456275 -0.000005 -77.019672 -0.000003 -0.000001 0.000002 1.471446 -0.000007 -1.133455 126.360180 0.625745 0.000000 0.917755 -0.000002 23.306625 -0.000002 -0.629534 0.000001 0.940221 0.000000 1.709735 -53.882925 -0.000001 0.113772 1.960660 -88.303882 164.223634 0.000002 -0.669733 -0.113771 0.388339 -0.324491 3.492201 112.995269 
0.000000 0.000000 0.000000 -0.000000 1.019410 -111.775308 -0.000000 0.000000 1.456275 -0.000009 -76.768826 -0.000001 -0.000000 0.000002 1.471446 -0.000009 -1.133455 125.370499 0.625745 0.000000 0.917755 0.000001 24.181422 -0.000001 -0.629534 0.000001 0.940221 0.000002 1.709737 -53.461110 -0.000001 0.113772 1.960660 -88.303882 163.642235 -0.000002 -0.669733 -0.113771 0.388340 -0.327326 3.493341 113.167342 
0.000000 0.000000 0.000000 -0.000000 1.019410 -110.839306 -0.000000 0.000000 1.456275 -0.000001 -76.502674 0.000008 -0.000001 0.000002 1.471446 -0.000010 -1.133456 124.320399 0.625745 0.000000 0.917755 0.000001 25.109638 -0.000000 -0.629534 0.000001 0.940220 0.000004 1.709733 -53.013528 -0.000001 0.113772 1.960660 -88.303882 163.025332 -0.000002 -0.669733 -0.113771 0.388340 -0.330339 3.494540 113.349933 
0.000000 0.000000 0.000000 -0.000000 1.019410 -109.806499 -0.000000 0.000000 1.456275 -0.000002 -76.208976 0.000006 -0.000000 0.000002 1.471446 -0.000008 -1.133456 123.161684 0.625745 0.000000 0.917755 0.000004 26.133842 -0.000003 -0.629534 0.000001 0.940221 0.000001 1.709735 -52.519664 -0.000001 0.113772 1.960661 -88.303882 162.344649 -0.000000 -0.669733 -0.113771 0.388340 -0.333667 3.495852 113.551403 
0.000000 0.000000 0.000000 -0.000000 1.019410 -108.633981 -0.000000 -0.000000 1.456275 0.000008 -75.875561 -0.000002 -0.000000 0.000002 1.471446 -0.000007 -1.133456 121.846231 0.625745 0.000001 0.917755 0.000001 27.296602 0.000002 -0.629534 0.000001 0.940221 0.000003 1.709737 -51.958994 -0.000001 0.113772 1.960660 -88.303882 161.571854 -0.000002 -0.669733 -0.113771 0.388340 -0.337451 3.497328 113.780126 
0.000000 0.000000 0.000000 -0.000000 1.019410 -107.307019 -0.000000 0.000000 1.456275 0.000009 -75.498227 -0.000003 -0.000000 0.000002 1.471446 -0.000007 -1.133456 120.357495 0.625745 0.000001 0.917755 -0.000001 28.612518 0.000001 -0.629534 0.000001 0.940221 0.000001 1.709735 -51.324476 -0.000001 0.113772 1.960661 -88.303882 160.697289 0.000002 -0.669733 -0.113771 0.388340 -0.341741 3.498978 114.038983 
0.000000 0.000000 0.000000 -0.000000 1.019410 -105.923748 -0.000000 0.000000 1.456275 -0.000006 -75.104876 0.000001 -0.000000 0.000002 1.471446 -0.000006 -1.133455 118.805594 0.625745 0.000000 0.917755 -0.000000 29.984274 0.000004 -0.629534 0.000001 0.940221 0.000004 1.709737 -50.663027 -0.000001 0.113772 1.960660 -88.303882 159.785609 0.000001 -0.669733 -0.113771 0.388340 -0.346221 3.500679 114.308823 
0.000000 0.000000 0.000000 -0.000000 1.019410 -104.610515 -0.000000 0.000000 1.456275 -0.000001 -74.731449 0.000003 -0.000001 0.000002 1.471446 -0.000007 -1.133456 117.332268 0.625745 0.000001 0.917755 -0.000002 31.286580 0.000000 -0.629534 0.000001 0.940221 0.000002 1.709735 -50.035070 -0.000001 0.113772 1.960660 -88.303882 158.920088 -0.000004 -0.669734 -0.113771 0.388340 -0.350482 3.502275 114.565003 
0.000000 0.000000 0.000000 -0.000000 1.019410 -103.428209 -0.000000 0.000000 1.456275 0.000001 -74.395247 0.000003 -0.000000 0.000002 1.471446 -0.000007 -1.133455 116.005818 0.625745 0.000000 0.917755 -0.000002 32.459053 0.000003 -0.629534 0.000001 0.940221 0.000001 1.709737 -49.469721 -0.000001 0.113772 1.960661 -88.303882 158.140859 0.000005 -0.669733 -0.113771 0.388340 -0.354323 3.503695 114.795645 
